HIERARCHY
ROOT Hips
{
	OFFSET 0.000000 83.214638 0.000000
	CHANNELS 6 Xposition Yposition Zposition Xrotation Yrotation Zrotation
	JOINT Pelvis
	{
		OFFSET 0.000000 0.000000 0.000000
		CHANNELS 3 Xrotation Yrotation Zrotation
		JOINT LeftUpLeg
		{
			OFFSET 8.479700 -4.795502 -0.379100
			CHANNELS 3 Xrotation Yrotation Zrotation
			JOINT LeftLeg
			{
				OFFSET 0.024144 -32.555107 0.112900
				CHANNELS 3 Xrotation Yrotation Zrotation
				JOINT LeftFoot
				{
					OFFSET -0.024144 -32.638630 -3.012600
					CHANNELS 3 Xrotation Yrotation Zrotation
					JOINT LeftToeBase
					{
						OFFSET 0.970200 -13.225400 11.864200
						CHANNELS 3 Xrotation Yrotation Zrotation
						End Site
						{
							OFFSET 0.000000 12.319262 0.000000
						}
					}
					JOINT LFootTongue
					{
						OFFSET 1.142400 -1.059800 6.665200
						CHANNELS 3 Xrotation Yrotation Zrotation
						End Site
						{
							OFFSET 0.000000 12.319262 0.000000
						}
					}
				}
				JOINT LeftPantLeg
				{
					OFFSET 0.918482 -16.533964 -2.284700
					CHANNELS 3 Xrotation Yrotation Zrotation
					End Site
					{
						OFFSET 0.350399 24.744368 0.000000
					}
				}
			}
		}
		JOINT RightUpLeg
		{
			OFFSET -8.479700 -4.795502 -0.379100
			CHANNELS 3 Xrotation Yrotation Zrotation
			JOINT RightLeg
			{
				OFFSET -0.023144 -32.555092 0.112900
				CHANNELS 3 Xrotation Yrotation Zrotation
				JOINT RightFoot
				{
					OFFSET 0.023144 -32.638641 -3.012700
					CHANNELS 3 Xrotation Yrotation Zrotation
					JOINT RightToeBase
					{
						OFFSET -0.970200 -13.225400 11.864200
						CHANNELS 3 Xrotation Yrotation Zrotation
						End Site
						{
							OFFSET 0.000000 12.319244 0.000000
						}
					}
					JOINT RFootTongue
					{
						OFFSET -1.142200 -1.059800 6.665200
						CHANNELS 3 Xrotation Yrotation Zrotation
						End Site
						{
							OFFSET 0.000000 12.319243 0.000000
						}
					}
				}
				JOINT RightPantLeg
				{
					OFFSET -0.919482 -16.533978 -2.284800
					CHANNELS 3 Xrotation Yrotation Zrotation
					End Site
					{
						OFFSET -0.350400 24.744419 0.000000
					}
				}
			}
		}
	}
	JOINT Spine
	{
		OFFSET 0.000000 7.722000 1.166200
		CHANNELS 3 Xrotation Yrotation Zrotation
		JOINT Spine1
		{
			OFFSET 0.000000 12.024101 0.248800
			CHANNELS 3 Xrotation Yrotation Zrotation
			JOINT Spine2
			{
				OFFSET 0.000000 11.502998 -0.491200
				CHANNELS 3 Xrotation Yrotation Zrotation
				JOINT Neck
				{
					OFFSET 0.000000 18.430702 -3.123100
					CHANNELS 3 Xrotation Yrotation Zrotation
					JOINT Head
					{
						OFFSET 0.000000 9.051102 1.034000
						CHANNELS 3 Xrotation Yrotation Zrotation
						JOINT HairB
						{
							OFFSET 0.208400 24.786102 24.822300
							CHANNELS 3 Xrotation Yrotation Zrotation
							End Site
							{
								OFFSET 0.000000 32.263779 0.000000
							}
						}
						JOINT HairA
						{
							OFFSET -7.081100 24.428299 23.196600
							CHANNELS 3 Xrotation Yrotation Zrotation
							End Site
							{
								OFFSET 0.000000 32.263779 0.000000
							}
						}
						JOINT Hat
						{
							OFFSET 16.728800 15.048294 -15.439601
							CHANNELS 3 Xrotation Yrotation Zrotation
							End Site
							{
								OFFSET 0.000000 32.263779 0.000000
							}
						}
					}
				}
				JOINT LeftShoulder
				{
					OFFSET 6.197800 13.665199 -4.064700
					CHANNELS 3 Xrotation Yrotation Zrotation
					JOINT LeftArm
					{
						OFFSET 7.778100 -0.187103 -1.709300
						CHANNELS 3 Xrotation Yrotation Zrotation
						JOINT LeftForeArm
						{
							OFFSET 22.049376 0.000000 0.000000
							CHANNELS 3 Xrotation Yrotation Zrotation
							JOINT LeftHand
							{
								OFFSET 23.009392 0.000000 0.000000
								CHANNELS 3 Xrotation Yrotation Zrotation
								JOINT LeftHandThumb1
								{
									OFFSET 3.507191 -2.063065 3.133727
									CHANNELS 3 Xrotation Yrotation Zrotation
									JOINT LeftHandThumb2
									{
										OFFSET 3.101337 -1.790558 1.790558
										CHANNELS 3 Xrotation Yrotation Zrotation
										JOINT LeftHandThumb3
										{
											OFFSET 3.058640 -1.765907 1.765906
											CHANNELS 3 Xrotation Yrotation Zrotation
											End Site
											{
												OFFSET -0.415260 3.926476 -0.049563
											}
										}
									}
								}
								JOINT LeftHandIndex1
								{
									OFFSET 11.334419 -0.901459 3.706815
									CHANNELS 3 Xrotation Yrotation Zrotation
									JOINT LeftHandIndex2
									{
										OFFSET 3.283112 0.000000 0.000000
										CHANNELS 3 Xrotation Yrotation Zrotation
										JOINT LeftHandIndex3
										{
											OFFSET 3.323853 0.000000 0.000000
											CHANNELS 3 Xrotation Yrotation Zrotation
											End Site
											{
												OFFSET -1.135597 3.097809 0.402452
											}
										}
									}
								}
								JOINT LeftHandMiddle1
								{
									OFFSET 11.335861 0.000000 0.000000
									CHANNELS 3 Xrotation Yrotation Zrotation
									JOINT LeftHandMiddle2
									{
										OFFSET 3.410492 0.000000 0.000000
										CHANNELS 3 Xrotation Yrotation Zrotation
										JOINT LeftHandMiddle3
										{
											OFFSET 3.312172 0.000000 0.000000
											CHANNELS 3 Xrotation Yrotation Zrotation
											End Site
											{
												OFFSET -1.150200 3.080154 0.400270
											}
										}
									}
								}
								JOINT LeftHandRing1
								{
									OFFSET 11.514786 -0.013176 -3.003090
									CHANNELS 3 Xrotation Yrotation Zrotation
									JOINT LeftHandRing2
									{
										OFFSET 3.053307 0.000000 0.000000
										CHANNELS 3 Xrotation Yrotation Zrotation
										JOINT LeftHandRing3
										{
											OFFSET 3.295807 0.000000 0.000000
											CHANNELS 3 Xrotation Yrotation Zrotation
											End Site
											{
												OFFSET -1.281006 3.013344 0.375733
											}
										}
									}
								}
								JOINT LeftHandPinky1
								{
									OFFSET 10.518692 -0.960396 -5.730441
									CHANNELS 3 Xrotation Yrotation Zrotation
									JOINT LeftHandPinky2
									{
										OFFSET 2.861649 0.000000 0.000000
										CHANNELS 3 Xrotation Yrotation Zrotation
										JOINT LeftHandPinky3
										{
											OFFSET 2.863380 0.000000 0.000000
											CHANNELS 3 Xrotation Yrotation Zrotation
											End Site
											{
												OFFSET -0.843597 2.711159 0.369971
											}
										}
									}
								}
							}
							JOINT LSleeve
							{
								OFFSET 6.676277 -0.344902 -1.011730
								CHANNELS 3 Xrotation Yrotation Zrotation
								End Site
								{
									OFFSET 0.000000 14.885353 0.000000
								}
							}
						}
					}
				}
				JOINT RightShoulder
				{
					OFFSET -6.197800 13.665199 -4.064700
					CHANNELS 3 Xrotation Yrotation Zrotation
					JOINT RightArm
					{
						OFFSET -7.778100 -0.187103 -1.709300
						CHANNELS 3 Xrotation Yrotation Zrotation
						JOINT RightForeArm
						{
							OFFSET -22.049376 0.000000 0.000000
							CHANNELS 3 Xrotation Yrotation Zrotation
							JOINT RightHand
							{
								OFFSET -23.009392 0.000000 0.000000
								CHANNELS 3 Xrotation Yrotation Zrotation
								JOINT RightHandThumb1
								{
									OFFSET -3.507191 -2.063065 3.133727
									CHANNELS 3 Xrotation Yrotation Zrotation
									JOINT RightHandThumb2
									{
										OFFSET -3.101337 -1.790558 1.790558
										CHANNELS 3 Xrotation Yrotation Zrotation
										JOINT RightHandThumb3
										{
											OFFSET -3.058640 -1.765907 1.765906
											CHANNELS 3 Xrotation Yrotation Zrotation
											End Site
											{
												OFFSET 0.415260 3.926476 -0.049563
											}
										}
									}
								}
								JOINT RightHandIndex1
								{
									OFFSET -11.334419 -0.901459 3.706815
									CHANNELS 3 Xrotation Yrotation Zrotation
									JOINT RightHandIndex2
									{
										OFFSET -3.283112 0.000000 0.000000
										CHANNELS 3 Xrotation Yrotation Zrotation
										JOINT RightHandIndex3
										{
											OFFSET -3.323853 0.000000 0.000000
											CHANNELS 3 Xrotation Yrotation Zrotation
											End Site
											{
												OFFSET 1.135597 3.097809 0.402452
											}
										}
									}
								}
								JOINT RightHandMiddle1
								{
									OFFSET -11.335861 0.000000 0.000000
									CHANNELS 3 Xrotation Yrotation Zrotation
									JOINT RightHandMiddle2
									{
										OFFSET -3.410492 0.000000 0.000000
										CHANNELS 3 Xrotation Yrotation Zrotation
										JOINT RightHandMiddle3
										{
											OFFSET -3.312172 0.000000 0.000000
											CHANNELS 3 Xrotation Yrotation Zrotation
											End Site
											{
												OFFSET 1.150200 3.080154 0.400270
											}
										}
									}
								}
								JOINT RightHandRing1
								{
									OFFSET -11.514786 -0.013176 -3.003090
									CHANNELS 3 Xrotation Yrotation Zrotation
									JOINT RightHandRing2
									{
										OFFSET -3.053307 0.000000 0.000000
										CHANNELS 3 Xrotation Yrotation Zrotation
										JOINT RightHandRing3
										{
											OFFSET -3.295807 0.000000 0.000000
											CHANNELS 3 Xrotation Yrotation Zrotation
											End Site
											{
												OFFSET 1.281006 3.013344 0.375733
											}
										}
									}
								}
								JOINT RightHandPinky1
								{
									OFFSET -10.518692 -0.960396 -5.730441
									CHANNELS 3 Xrotation Yrotation Zrotation
									JOINT RightHandPinky2
									{
										OFFSET -2.861649 0.000000 0.000000
										CHANNELS 3 Xrotation Yrotation Zrotation
										JOINT RightHandPinky3
										{
											OFFSET -2.863380 0.000000 0.000000
											CHANNELS 3 Xrotation Yrotation Zrotation
											End Site
											{
												OFFSET 0.843597 2.711159 0.369971
											}
										}
									}
								}
							}
							JOINT RSleeve
							{
								OFFSET -6.676277 -0.344902 -1.011730
								CHANNELS 3 Xrotation Yrotation Zrotation
								End Site
								{
									OFFSET 0.000000 14.885353 0.000000
								}
							}
						}
					}
				}
				JOINT Backpack
				{
					OFFSET 0.000000 -2.471497 36.677502
					CHANNELS 3 Xrotation Yrotation Zrotation
					End Site
					{
						OFFSET 0.000000 20.427315 0.000000
					}
				}
				JOINT Hood
				{
					OFFSET 0.000000 18.754097 -10.431000
					CHANNELS 3 Xrotation Yrotation Zrotation
					JOINT Hood1
					{
						OFFSET 0.000000 -5.011002 -7.685901
						CHANNELS 3 Xrotation Yrotation Zrotation
						End Site
						{
							OFFSET 0.000000 9.175140 0.000000
						}
					}
				}
				JOINT LHoodieString
				{
					OFFSET 5.250500 16.397697 3.089900
					CHANNELS 3 Xrotation Yrotation Zrotation
					JOINT LHoodieString1
					{
						OFFSET 0.257700 -6.364304 3.694600
						CHANNELS 3 Xrotation Yrotation Zrotation
						JOINT LHoodieString2
						{
							OFFSET 0.000000 -9.643799 2.679100
							CHANNELS 3 Xrotation Yrotation Zrotation
							End Site
							{
								OFFSET 0.000000 10.009018 0.000000
							}
						}
					}
				}
				JOINT RHoodieString
				{
					OFFSET -5.250500 16.397697 3.089900
					CHANNELS 3 Xrotation Yrotation Zrotation
					JOINT RHoodieString1
					{
						OFFSET -0.257700 -6.364304 3.694600
						CHANNELS 3 Xrotation Yrotation Zrotation
						JOINT RHoodieString2
						{
							OFFSET 0.000000 -9.643799 2.679100
							CHANNELS 3 Xrotation Yrotation Zrotation
							End Site
							{
								OFFSET 0.000000 10.009018 0.000000
							}
						}
					}
				}
			}
			JOINT LBackpack_Strap
			{
				OFFSET 15.223200 -7.719803 -6.610900
				CHANNELS 3 Xrotation Yrotation Zrotation
				End Site
				{
					OFFSET 0.000000 16.040596 0.000000
				}
			}
			JOINT RBackpack_Strap
			{
				OFFSET -15.223000 -7.719803 -6.610900
				CHANNELS 3 Xrotation Yrotation Zrotation
				End Site
				{
					OFFSET 0.000000 16.040596 0.000000
				}
			}
		}
	}
	JOINT BoyFacialAnim_Joint
	{
		OFFSET 1.000000 -82.208099 -1.550900
		CHANNELS 3 Xrotation Yrotation Zrotation
		End Site
		{
			OFFSET 0.000000 30.012791 0.000000
		}
	}
}
MOTION
Frames: 4
Frame Time: 0.033333
-0.425821 65.188019 -0.168042 0.972533 -42.232433 4.591644 0.000000 -0.000001 -0.000000 -62.022509 4.589581 10.822351 77.079457 8.505695 -1.635050 -8.694767 8.666566 -5.917378 0.000000 0.000001 -0.000000 0.000000 0.000001 -0.000000 0.000000 0.000003 -0.000000 -60.764867 -15.028749 -20.980845 80.970677 9.640119 -1.850125 -27.418435 -19.932346 -8.265489 -0.000000 0.000001 0.000000 -0.000000 0.000001 0.000000 -0.000000 0.000002 -0.000000 57.313757 3.074994 -0.803841 2.873275 1.838164 -3.027413 2.876140 1.623717 -3.117537 -13.547369 4.034361 -4.472250 -28.257667 -1.622480 3.344903 -0.000000 0.000001 -0.000002 -0.000000 0.000001 -0.000002 -0.000000 0.000001 -0.000002 -36.420717 -26.836884 7.944178 -68.310901 -7.367192 -50.473933 0.000024 -62.399802 0.000015 -128.194810 -4.385791 22.483099 1.567994 0.456390 2.719342 19.473190 -1.474917 7.636916 -0.000002 0.000004 -0.000001 -1.882820 2.129446 -39.817018 2.947098 5.081744 -60.200502 0.000001 -0.000001 -0.000002 0.405917 5.507065 -52.453162 3.387150 5.308620 -65.057463 0.000002 0.000000 0.000002 -0.074377 5.736793 -61.061420 4.422085 5.674498 -75.840351 -0.000002 -0.000003 0.000001 2.216815 7.072475 -64.435431 4.422633 5.674636 -75.845747 -0.000002 0.000001 -0.000000 0.000000 0.000003 0.000001 -38.059580 6.111556 -16.777354 -44.650405 20.467724 86.662198 0.000037 113.896656 -0.000037 -23.572866 -34.099620 -16.666268 8.377130 -4.904139 11.021994 21.620221 -18.183873 -18.379190 0.000002 0.000001 -0.000002 -1.101402 1.407133 15.159514 1.422341 -3.352183 45.974092 -0.000001 0.000000 0.000004 3.413052 -7.186267 51.650246 6.296806 -4.359583 110.634660 0.000000 0.000000 0.000003 -3.349041 -2.600426 57.010571 5.440857 -4.590897 99.698181 0.000000 0.000001 0.000002 -3.996441 -3.303944 64.593837 4.058858 -4.618679 82.610523 -0.000001 -0.000001 -0.000002 0.000001 -0.000005 0.000000 0.000001 0.000000 0.000000 0.000001 0.000000 0.000000 0.000001 0.000000 0.000000 0.000001 0.000000 0.000000 0.000001 0.000000 0.000001 -0.000001 -0.000000 0.000003 0.000001 0.000000 0.000000 0.000001 0.000000 0.000001 -0.000001 -0.000000 0.000003 0.000001 -0.000000 -0.000000 0.000001 -0.000000 -0.000000 0.000000 -0.000001 -0.000000 
-2.507723 65.585106 -0.502652 2.172308 -42.858132 5.254007 -0.000000 -0.000000 0.000000 -63.721225 8.031024 9.597613 72.557175 8.285248 -4.578035 -10.146985 8.825337 -4.672600 -0.000000 0.000000 -0.000000 -0.000000 0.000000 -0.000000 -0.000000 0.000001 0.000000 -59.518002 -16.561264 -20.209130 80.342231 9.486933 -0.600286 -29.664147 -18.686593 -10.194407 0.000000 0.000000 0.000000 0.000000 0.000000 0.000000 0.000001 0.000002 -0.000000 56.978944 3.570486 -1.365163 2.822381 1.942049 -2.966129 2.827726 1.733886 -3.078295 -13.557308 4.169055 -4.935471 -28.351868 -1.751829 3.389918 0.000002 0.000000 -0.000000 0.000002 0.000000 -0.000000 0.000002 0.000000 -0.000000 -36.427663 -26.697674 7.900039 -68.099390 -7.238452 -50.700293 0.000027 -61.877546 0.000021 -128.669002 -4.095789 21.724487 1.578270 0.497934 2.729137 19.487739 -1.405622 7.607289 -0.000000 -0.000000 0.000001 -1.918861 2.069987 -39.708534 2.948003 5.082257 -60.210652 -0.000003 -0.000001 -0.000002 0.407864 5.507112 -52.426842 3.390303 5.310102 -65.091757 0.000000 -0.000000 0.000000 -0.074371 5.736786 -61.061420 4.422498 5.674586 -75.844367 -0.000001 0.000000 -0.000000 2.234090 7.080665 -64.435595 4.424831 5.675185 -75.868027 -0.000001 0.000000 -0.000000 0.000000 0.000001 -0.000002 -38.068616 6.242213 -16.869710 -44.540101 20.830859 86.449943 0.000105 113.581627 -0.000122 -23.387244 -34.072009 -16.882015 8.367980 -4.877128 11.031976 21.632210 -18.206523 -18.374694 -0.000002 0.000001 0.000001 -1.105783 1.372989 15.306529 1.422366 -3.352203 45.974017 -0.000000 -0.000001 0.000007 3.420078 -7.188113 51.732174 6.299007 -4.358754 110.663524 0.000001 0.000000 0.000003 -3.366110 -2.606261 57.133545 5.440851 -4.590906 99.698140 0.000000 0.000000 0.000002 -4.016462 -3.306158 64.675232 4.056813 -4.618407 82.584924 -0.000001 0.000000 0.000004 -0.000000 -0.000005 0.000001 0.000003 -0.000001 0.000001 0.000003 -0.000001 0.000001 0.000003 -0.000001 0.000001 0.000003 -0.000001 0.000001 0.000003 -0.000001 -0.000001 -0.000001 -0.000001 -0.000000 0.000003 -0.000001 0.000001 0.000003 -0.000001 -0.000001 -0.000001 -0.000001 -0.000000 0.000003 -0.000001 -0.000000 0.000003 -0.000001 -0.000000 -0.000000 -0.000000 0.000000 
-4.505483 65.849220 -0.717481 3.422607 -43.327063 6.112204 -0.000000 -0.000002 -0.000000 -64.956567 11.144473 7.805179 66.871473 8.098848 -7.346103 -10.965110 8.100733 -2.579232 0.000000 -0.000001 -0.000000 0.000000 -0.000001 0.000000 -0.000000 0.000001 0.000000 -58.413840 -17.830902 -19.487105 79.887136 9.453452 0.530104 -31.869533 -17.671060 -11.963694 -0.000000 0.000001 0.000000 -0.000000 0.000001 0.000000 0.000001 -0.000002 0.000002 56.602512 4.007672 -1.859744 2.807542 2.038477 -2.918834 2.812183 1.835791 -3.048273 -13.683550 4.290017 -5.506137 -28.378886 -2.108337 3.435260 0.000001 0.000002 -0.000001 0.000001 0.000002 -0.000001 0.000001 0.000002 -0.000001 -36.429507 -26.556370 7.889545 -67.959781 -7.056804 -50.933021 0.000072 -61.493525 0.000079 -129.044868 -3.779510 21.139883 1.615144 0.566672 2.762293 19.496630 -1.362755 7.587948 -0.000001 -0.000002 0.000004 -1.943647 2.031385 -39.651171 2.948674 5.082640 -60.218376 -0.000002 0.000000 -0.000004 0.426990 5.522543 -52.440755 3.391520 5.310639 -65.104742 0.000001 0.000000 0.000000 -0.073085 5.739065 -61.083311 4.424138 5.674990 -75.861292 0.000000 -0.000001 -0.000006 2.245830 7.086235 -64.435725 4.426021 5.675470 -75.880028 -0.000002 0.000001 -0.000002 0.000003 -0.000000 -0.000001 -38.079350 6.408574 -16.910230 -44.445578 21.194603 86.259955 0.000036 113.393790 -0.000046 -23.207395 -34.138392 -17.208918 8.364981 -4.864258 11.056312 21.647767 -18.233501 -18.365405 0.000005 0.000001 0.000000 -1.109882 1.340021 15.448783 1.422333 -3.352179 45.973935 0.000000 -0.000000 0.000005 3.428380 -7.190245 51.828862 6.299946 -4.358415 110.676112 0.000002 0.000000 0.000002 -3.385145 -2.605511 57.217943 5.440857 -4.590901 99.698154 -0.000000 -0.000001 0.000007 -4.032734 -3.306860 64.733678 4.065756 -4.619573 82.696181 0.000000 -0.000001 0.000000 -0.000000 -0.000001 0.000000 0.000001 0.000000 -0.000000 0.000001 0.000000 -0.000000 0.000001 0.000000 -0.000000 0.000001 0.000000 -0.000000 0.000001 0.000000 -0.000002 -0.000000 -0.000001 -0.000000 0.000001 0.000000 -0.000000 0.000001 0.000000 -0.000002 -0.000000 -0.000001 -0.000000 0.000001 0.000000 0.000001 0.000001 0.000000 0.000001 -0.000000 -0.000002 -0.000000 
-6.456739 66.004105 -0.812994 4.579200 -43.647491 7.051002 -0.000000 0.000001 -0.000000 -65.859109 13.743128 4.358353 59.923633 7.516493 -8.604829 -10.942188 6.423491 2.611234 -0.000001 -0.000001 -0.000001 -0.000001 -0.000001 -0.000001 -0.000001 -0.000001 0.000000 -57.244440 -18.769230 -18.696116 79.631830 9.609829 1.444012 -34.144389 -17.012569 -13.543223 0.000000 -0.000000 0.000000 0.000000 -0.000000 0.000000 -0.000001 -0.000002 0.000001 56.250156 4.441540 -2.210363 2.862932 2.136993 -2.925368 2.884126 1.923054 -3.054077 -13.976867 4.401443 -6.248156 -28.328515 -2.808073 3.612279 0.000001 -0.000001 0.000001 0.000001 -0.000001 0.000001 0.000001 -0.000001 0.000001 -36.429893 -26.512855 7.888622 -67.922557 -6.720970 -51.069683 0.000016 -61.455488 0.000012 -129.174996 -3.462727 20.951416 1.683021 0.693479 2.813532 19.492836 -1.373206 7.590158 -0.000002 0.000002 0.000004 -1.951379 2.028203 -39.694225 2.948896 5.082756 -60.220897 0.000006 0.000001 -0.000002 0.463750 5.555260 -52.526675 3.390577 5.310204 -65.094476 0.000000 0.000000 -0.000001 -0.066346 5.746791 -61.138956 4.427412 5.675816 -75.894296 0.000000 -0.000001 0.000003 2.249192 7.087841 -64.435766 4.426773 5.675658 -75.887534 -0.000004 -0.000000 0.000001 -0.000001 0.000002 0.000004 -38.092569 6.620146 -16.875328 -44.387350 21.524766 86.133002 0.000100 113.410592 -0.000123 -23.050116 -34.336556 -17.664181 8.371871 -4.876658 11.091128 21.664025 -18.265712 -18.359236 0.000002 -0.000000 0.000001 -1.113045 1.310821 15.570722 1.422324 -3.352195 45.973856 0.000001 -0.000000 0.000002 3.426674 -7.182063 51.982992 6.298281 -4.359017 110.654174 0.000000 0.000000 -0.000000 -3.401727 -2.596621 57.231453 5.440505 -4.590947 99.693639 0.000000 0.000002 -0.000001 -4.052027 -3.301511 64.759940 4.082286 -4.621651 82.901366 0.000001 0.000000 -0.000005 0.000001 0.000000 0.000001 -0.000000 0.000001 -0.000001 -0.000000 0.000001 -0.000001 -0.000000 0.000001 -0.000001 -0.000000 0.000001 -0.000001 -0.000000 0.000001 -0.000002 -0.000001 -0.000000 -0.000001 -0.000000 0.000001 -0.000001 -0.000000 0.000001 -0.000002 -0.000001 -0.000000 -0.000001 0.000003 0.000002 -0.000003 0.000003 0.000002 -0.000003 -0.000000 0.000001 -0.000000 
